name Walk9.mot
datacolumns 19
datarows 15
range 1.37900000 1.39300000
endheader

                time	   L_ground_force_vx	   L_ground_force_vy	   L_ground_force_vz	   L_ground_force_px	   L_ground_force_py	   L_ground_force_pz	   R_ground_force_vx	   R_ground_force_vy	   R_ground_force_vz	   R_ground_force_px	   R_ground_force_py	   R_ground_force_pz	   L_ground_torque_x	   L_ground_torque_y	   L_ground_torque_z	   R_ground_torque_x	   R_ground_torque_y	   R_ground_torque_z	
          1.37900000	         -0.03417469	          0.51415023	         -0.05398828	          0.00047801	          0.00000000	          0.00030099	         15.16692288	        686.25743656	        -13.55354306	         -0.14810291	          0.00000000	          0.32243763	          0.00000000	         -0.00025842	          0.00000000	          0.00000000	          2.89138347	          0.00000000	
          1.38000000	         -0.03710509	          0.52955696	         -0.05506972	          0.00048572	          0.00000000	          0.00030532	         15.57618548	        687.94515014	        -13.63797882	         -0.14773649	          0.00000000	          0.32237743	          0.00000000	         -0.00027560	          0.00000000	          0.00000000	          2.86858460	          0.00000000	
          1.38100000	         -0.04015455	          0.54420835	         -0.05602423	          0.00049214	          0.00000000	          0.00030880	         15.99293315	        689.62684965	        -13.72579481	         -0.14737215	          0.00000000	          0.32231792	          0.00000000	         -0.00029323	          0.00000000	          0.00000000	          2.84502267	          0.00000000	
          1.38200000	         -0.04332154	          0.55797369	         -0.05683605	          0.00049713	          0.00000000	          0.00031133	         16.41722510	        691.30249783	        -13.81671218	         -0.14700998	          0.00000000	          0.32225910	          0.00000000	         -0.00031129	          0.00000000	          0.00000000	          2.82073637	          0.00000000	
          1.38300000	         -0.04660392	          0.57071379	         -0.05748859	          0.00050053	          0.00000000	          0.00031280	         16.84912498	        692.97205065	        -13.91042951	         -0.14665008	          0.00000000	          0.32220092	          0.00000000	         -0.00032975	          0.00000000	          0.00000000	          2.79576702	          0.00000000	
          1.38400000	         -0.04999884	          0.58228077	         -0.05796434	          0.00050217	          0.00000000	          0.00031312	         17.28870089	        694.63545769	        -14.00662225	         -0.14629255	          0.00000000	          0.32214337	          0.00000000	         -0.00034856	          0.00000000	          0.00000000	          2.77015848	          0.00000000	
          1.38500000	         -0.05350274	          0.59251784	         -0.05824492	          0.00050190	          0.00000000	          0.00031218	         17.73602501	        696.29266230	        -14.10494210	         -0.14593749	          0.00000000	          0.32208643	          0.00000000	         -0.00036767	          0.00000000	          0.00000000	          2.74395726	          0.00000000	
          1.38600000	         -0.05711129	          0.60125915	         -0.05831101	          0.00049953	          0.00000000	          0.00030986	         18.19117314	        697.94360136	        -14.20501664	         -0.14558500	          0.00000000	          0.32203006	          0.00000000	         -0.00038704	          0.00000000	          0.00000000	          2.71721253	          0.00000000	
          1.38700000	         -0.06081929	          0.60832960	         -0.05814244	          0.00049487	          0.00000000	          0.00030604	         18.65422419	        699.58820486	        -14.30644934	         -0.14523518	          0.00000000	          0.32197424	          0.00000000	         -0.00040662	          0.00000000	          0.00000000	          2.68997631	          0.00000000	
          1.38800000	         -0.06462068	          0.61354472	         -0.05771807	          0.00048774	          0.00000000	          0.00030061	         19.12525976	        701.22639532	        -14.40882039	         -0.14488811	          0.00000000	          0.32191894	          0.00000000	         -0.00042633	          0.00000000	          0.00000000	          2.66230350	          0.00000000	
          1.38900000	         -0.06850843	          0.61671058	         -0.05701590	          0.00047793	          0.00000000	          0.00029343	         19.60436386	        702.85808754	        -14.51168863	         -0.14454391	          0.00000000	          0.32186411	          0.00000000	         -0.00044612	          0.00000000	          0.00000000	          2.63425210	          0.00000000	
          1.39000000	         -0.07247453	          0.61762367	         -0.05601301	          0.00046523	          0.00000000	          0.00028437	         20.09162261	        704.48318856	        -14.61459462	         -0.14420265	          0.00000000	          0.32180973	          0.00000000	         -0.00046590	          0.00000000	          0.00000000	          2.60588313	          0.00000000	
          1.39100000	         -0.07650985	          0.61607087	         -0.05468560	          0.00044944	          0.00000000	          0.00027329	         20.58712374	        706.10159801	        -14.71706474	         -0.14386443	          0.00000000	          0.32175577	          0.00000000	         -0.00048559	          0.00000000	          0.00000000	          2.57726067	          0.00000000	
          1.39200000	         -0.08060419	          0.61182946	         -0.05300899	          0.00043032	          0.00000000	          0.00026006	         21.09095578	        707.71320854	        -14.81861598	         -0.14352933	          0.00000000	          0.32170218	          0.00000000	         -0.00050511	          0.00000000	          0.00000000	          2.54845167	          0.00000000	
          1.39300000	         -0.08474610	          0.60466712	         -0.05095766	          0.00040764	          0.00000000	          0.00024452	         21.60320680	        709.31790655	        -14.91876121	         -0.14319744	          0.00000000	          0.32164894	          0.00000000	         -0.00052436	          0.00000000	          0.00000000	          2.51952575	          0.00000000	
